<svg width="903" height="110" viewBox="0 0 903 110" fill="none" xmlns="http://www.w3.org/2000/svg">
<path d="M18 48L4 62M18 62L4 48" stroke="#3C4242" stroke-width="1.5" stroke-linecap="round"/>
<rect x="58" width="110" height="110" rx="4"/>
<path d="M204.99 26V11.7H211.656C213.856 11.7 215.814 13.13 215.814 15.726C215.814 17.09 215.286 18.014 214.472 18.586C215.572 19.202 216.342 20.28 216.342 21.864C216.342 24.46 214.252 26 212.052 26H204.99ZM207.828 17.486H211.194C212.228 17.486 212.888 16.87 212.888 15.88C212.888 14.89 212.228 14.296 211.194 14.296H207.828V17.486ZM207.828 23.404H211.59C212.734 23.404 213.416 22.612 213.416 21.622C213.416 20.632 212.69 19.84 211.59 19.84H207.828V23.404ZM218.707 26V11.7H221.479L221.457 26H218.707ZM228.307 26.176C226.481 26.176 224.347 25.186 224.347 22.084V15.88H227.097V21.644C227.097 23.426 228.351 23.844 229.143 23.844C229.935 23.844 231.123 23.426 231.123 21.644V15.88H233.873V26H231.123V25.076C230.353 25.89 229.297 26.176 228.307 26.176ZM241.506 26.22C238.404 26.22 236.358 23.954 236.358 20.94C236.358 17.926 238.338 15.682 241.396 15.682C244.41 15.682 246.258 17.926 246.258 20.94V21.688H238.998C239.262 23.052 240.252 23.866 241.506 23.866C242.848 23.866 243.552 23.25 243.904 22.788L245.774 24.152C244.894 25.428 243.354 26.22 241.506 26.22ZM239.042 19.95H243.684C243.442 18.762 242.694 17.86 241.396 17.86C240.142 17.86 239.306 18.674 239.042 19.95ZM253.596 26V11.7H263.342V14.384H256.434V17.926H262.924V20.588H256.434V26H253.596ZM266.067 26V11.7H268.839L268.817 26H266.067ZM276.547 26.22C273.489 26.22 271.333 23.954 271.333 20.94C271.333 17.882 273.489 15.682 276.547 15.682C279.627 15.682 281.761 17.882 281.761 20.94C281.761 23.954 279.627 26.22 276.547 26.22ZM276.547 23.58C278.065 23.58 279.055 22.458 279.055 20.94C279.055 19.422 278.065 18.3 276.547 18.3C275.051 18.3 274.039 19.422 274.039 20.94C274.039 22.458 275.051 23.58 276.547 23.58ZM286.299 26L283.043 15.88H285.881L287.839 22.106L290.017 15.88H292.063L294.241 22.106L296.177 15.88H299.015L295.715 26H293.031L291.007 20.06L288.983 26H286.299ZM305.333 26.22C302.231 26.22 300.185 23.954 300.185 20.94C300.185 17.926 302.165 15.682 305.223 15.682C308.237 15.682 310.085 17.926 310.085 20.94V21.688H302.825C303.089 23.052 304.079 23.866 305.333 23.866C306.675 23.866 307.379 23.25 307.731 22.788L309.601 24.152C308.721 25.428 307.181 26.22 305.333 26.22ZM302.869 19.95H307.511C307.269 18.762 306.521 17.86 305.223 17.86C303.969 17.86 303.133 18.674 302.869 19.95ZM312.579 26V15.88H315.329V17.706C316.187 16.32 317.551 15.748 318.893 15.726V18.3C317.903 18.322 315.329 18.476 315.329 21.358V26H312.579ZM325.942 26V11.7H332.608C334.742 11.7 336.964 13.328 336.964 16.408C336.964 19.466 334.742 21.116 332.608 21.116H328.78V26H325.942ZM328.78 18.344H332.102C333.18 18.344 334.126 17.596 334.126 16.408C334.126 15.198 333.202 14.45 332.146 14.45H328.78V18.344ZM339.38 26V15.88H342.13V17.706C342.988 16.32 344.352 15.748 345.694 15.726V18.3C344.704 18.322 342.13 18.476 342.13 21.358V26H339.38ZM349.416 14.384C348.668 14.384 347.898 13.812 347.898 12.844C347.898 11.898 348.668 11.392 349.416 11.392C350.142 11.392 350.934 11.898 350.934 12.844C350.934 13.812 350.142 14.384 349.416 14.384ZM348.03 26V15.88H350.802L350.78 26H348.03ZM353.795 26V15.88H356.545V16.848C357.315 16.012 358.393 15.726 359.383 15.726C361.209 15.726 363.321 16.716 363.321 19.818V26H360.571V20.236C360.571 18.454 359.317 18.036 358.547 18.036C357.755 18.036 356.545 18.454 356.545 20.236V26H353.795ZM369.639 26C367.615 26 366.669 24.944 366.669 23.074V17.97H365.349V15.88H366.669V12.778H369.419V15.88H371.575V17.97H369.419V22.634C369.419 23.822 370.145 23.866 370.783 23.866H371.465V26H369.639ZM385.787 26.176C381.541 26.176 378.571 23.096 378.571 18.85C378.571 14.604 381.541 11.524 385.787 11.524C388.317 11.524 390.341 12.624 391.573 14.406L389.285 16.1C388.603 15.154 387.349 14.362 385.787 14.362C383.169 14.362 381.409 16.254 381.409 18.85C381.409 21.446 383.169 23.338 385.787 23.338C387.349 23.338 388.603 22.436 389.285 21.534L391.573 23.294C390.341 25.076 388.317 26.176 385.787 26.176ZM393.905 26V15.88H396.655V17.706C397.513 16.32 398.877 15.748 400.219 15.726V18.3C399.229 18.322 396.655 18.476 396.655 21.358V26H393.905ZM406.833 26.22C403.775 26.22 401.619 23.954 401.619 20.94C401.619 17.882 403.775 15.682 406.833 15.682C409.913 15.682 412.047 17.882 412.047 20.94C412.047 23.954 409.913 26.22 406.833 26.22ZM406.833 23.58C408.351 23.58 409.341 22.458 409.341 20.94C409.341 19.422 408.351 18.3 406.833 18.3C405.337 18.3 404.325 19.422 404.325 20.94C404.325 22.458 405.337 23.58 406.833 23.58ZM414.529 30.048V15.88H417.279V16.958C417.961 16.188 418.907 15.726 420.183 15.726C422.955 15.726 424.979 17.948 424.979 20.962C424.979 24.02 422.955 26.176 420.183 26.176C418.907 26.176 417.961 25.714 417.279 24.944V30.048H414.529ZM419.787 23.58C421.305 23.58 422.317 22.48 422.317 20.962C422.317 19.444 421.305 18.3 419.787 18.3C418.269 18.3 417.279 19.444 417.279 20.962C417.279 22.48 418.269 23.58 419.787 23.58ZM436.167 26V14.296H431.877V11.7H443.295V14.296H439.027V26H436.167ZM449.392 26.22C446.334 26.22 444.178 23.954 444.178 20.94C444.178 17.882 446.334 15.682 449.392 15.682C452.472 15.682 454.606 17.882 454.606 20.94C454.606 23.954 452.472 26.22 449.392 26.22ZM449.392 23.58C450.91 23.58 451.9 22.458 451.9 20.94C451.9 19.422 450.91 18.3 449.392 18.3C447.896 18.3 446.884 19.422 446.884 20.94C446.884 22.458 447.896 23.58 449.392 23.58ZM457.088 30.048V15.88H459.838V16.958C460.52 16.188 461.466 15.726 462.742 15.726C465.514 15.726 467.538 17.948 467.538 20.962C467.538 24.02 465.514 26.176 462.742 26.176C461.466 26.176 460.52 25.714 459.838 24.944V30.048H457.088ZM462.346 23.58C463.864 23.58 464.876 22.48 464.876 20.962C464.876 19.444 463.864 18.3 462.346 18.3C460.828 18.3 459.838 19.444 459.838 20.962C459.838 22.48 460.828 23.58 462.346 23.58Z" fill="#3C4242"/>
<path d="M214.912 103.804L213.702 102C213.174 102.11 212.58 102.176 211.986 102.176C207.74 102.176 204.77 99.096 204.77 94.85C204.77 90.604 207.828 87.524 211.986 87.524C216.254 87.524 219.158 90.604 219.158 94.85C219.158 97.402 218.102 99.536 216.342 100.834L218.322 103.804H214.912ZM211.942 99.338L210.688 97.446H214.076L214.736 98.436C215.726 97.622 216.298 96.368 216.298 94.85C216.298 92.254 214.604 90.362 211.986 90.362C209.368 90.362 207.608 92.254 207.608 94.85C207.608 97.424 209.346 99.316 211.942 99.338ZM225.654 102.176C223.828 102.176 221.694 101.186 221.694 98.084V91.88H224.444V97.644C224.444 99.426 225.698 99.844 226.49 99.844C227.282 99.844 228.47 99.426 228.47 97.644V91.88H231.22V102H228.47V101.076C227.7 101.89 226.644 102.176 225.654 102.176ZM238.501 102.176C235.729 102.176 233.705 99.954 233.705 96.94C233.705 93.882 235.729 91.726 238.501 91.726C239.777 91.726 240.723 92.188 241.405 92.958V91.88H244.155V102H241.405V100.944C240.723 101.714 239.777 102.176 238.501 102.176ZM238.897 99.58C240.415 99.58 241.405 98.458 241.405 96.94C241.405 95.422 240.415 94.3 238.897 94.3C237.379 94.3 236.367 95.422 236.367 96.94C236.367 98.458 237.379 99.58 238.897 99.58ZM247.023 102V91.88H249.773V92.848C250.543 92.012 251.621 91.726 252.611 91.726C254.437 91.726 256.549 92.716 256.549 95.818V102H253.799V96.236C253.799 94.454 252.545 94.036 251.775 94.036C250.983 94.036 249.773 94.454 249.773 96.236V102H247.023ZM262.866 102C260.842 102 259.896 100.944 259.896 99.074V93.97H258.576V91.88H259.896V88.778H262.646V91.88H264.802V93.97H262.646V98.634C262.646 99.822 263.372 99.866 264.01 99.866H264.692V102H262.866ZM268.692 90.384C267.944 90.384 267.174 89.812 267.174 88.844C267.174 87.898 267.944 87.392 268.692 87.392C269.418 87.392 270.21 87.898 270.21 88.844C270.21 89.812 269.418 90.384 268.692 90.384ZM267.306 102V91.88H270.078L270.056 102H267.306ZM276.701 102C274.677 102 273.731 100.944 273.731 99.074V93.97H272.411V91.88H273.731V88.778H276.481V91.88H278.637V93.97H276.481V98.634C276.481 99.822 277.207 99.866 277.845 99.866H278.527V102H276.701ZM282.505 106.048L284.111 102L280.129 91.88H282.967L285.453 98.194L287.983 91.88H290.821L285.189 106.048H282.505ZM298.671 95.532C297.813 95.532 297.197 94.916 297.197 94.058C297.197 93.2 297.813 92.606 298.671 92.606C299.507 92.606 300.123 93.2 300.123 94.058C300.123 94.916 299.507 95.532 298.671 95.532ZM298.671 102.132C297.813 102.132 297.197 101.516 297.197 100.658C297.197 99.822 297.813 99.228 298.671 99.228C299.507 99.228 300.123 99.822 300.123 100.658C300.123 101.516 299.507 102.132 298.671 102.132Z" fill="#3C4242"/>
<path d="M311.903 87.7V102H309.835V89.592H306.623V87.7H311.903Z" fill="#807D7E"/>
<path d="M211.986 64.176C207.74 64.176 204.77 61.096 204.77 56.85C204.77 52.604 207.74 49.524 211.986 49.524C214.516 49.524 216.54 50.624 217.772 52.406L215.484 54.1C214.802 53.154 213.548 52.362 211.986 52.362C209.368 52.362 207.608 54.254 207.608 56.85C207.608 59.446 209.368 61.338 211.986 61.338C213.548 61.338 214.802 60.436 215.484 59.534L217.772 61.294C216.54 63.076 214.516 64.176 211.986 64.176ZM224.514 64.22C221.456 64.22 219.3 61.954 219.3 58.94C219.3 55.882 221.456 53.682 224.514 53.682C227.594 53.682 229.728 55.882 229.728 58.94C229.728 61.954 227.594 64.22 224.514 64.22ZM224.514 61.58C226.032 61.58 227.022 60.458 227.022 58.94C227.022 57.422 226.032 56.3 224.514 56.3C223.018 56.3 222.006 57.422 222.006 58.94C222.006 60.458 223.018 61.58 224.514 61.58ZM232.21 64V49.7H234.982L234.96 64H232.21ZM242.689 64.22C239.631 64.22 237.475 61.954 237.475 58.94C237.475 55.882 239.631 53.682 242.689 53.682C245.769 53.682 247.903 55.882 247.903 58.94C247.903 61.954 245.769 64.22 242.689 64.22ZM242.689 61.58C244.207 61.58 245.197 60.458 245.197 58.94C245.197 57.422 244.207 56.3 242.689 56.3C241.193 56.3 240.181 57.422 240.181 58.94C240.181 60.458 241.193 61.58 242.689 61.58ZM250.385 64V53.88H253.135V55.706C253.993 54.32 255.357 53.748 256.699 53.726V56.3C255.709 56.322 253.135 56.476 253.135 59.358V64H250.385ZM264.781 57.532C263.923 57.532 263.307 56.916 263.307 56.058C263.307 55.2 263.923 54.606 264.781 54.606C265.617 54.606 266.233 55.2 266.233 56.058C266.233 56.916 265.617 57.532 264.781 57.532ZM264.781 64.132C263.923 64.132 263.307 63.516 263.307 62.658C263.307 61.822 263.923 61.228 264.781 61.228C265.617 61.228 266.233 61.822 266.233 62.658C266.233 63.516 265.617 64.132 264.781 64.132Z" fill="#3C4242"/>
<path d="M284.943 49.7L279.861 57.774V64H277.793V57.818L272.689 49.7H275.065L278.805 55.662L282.567 49.7H284.943ZM289.844 53.704C292.792 53.704 294.706 55.926 294.706 58.94V59.512H286.742C286.94 61.316 288.216 62.482 289.976 62.482C291.428 62.482 292.352 61.822 292.836 61.118L294.222 62.108C293.342 63.384 291.824 64.198 289.976 64.198C286.896 64.198 284.828 61.954 284.828 58.94C284.828 55.926 286.808 53.704 289.844 53.704ZM289.844 55.288C288.106 55.288 286.984 56.454 286.742 58.214H292.858C292.616 56.52 291.538 55.288 289.844 55.288ZM299.437 64H297.457V49.7H299.459L299.437 64ZM304.518 64H302.538V49.7H304.54L304.518 64ZM312.48 64.198C309.422 64.198 307.288 61.954 307.288 58.94C307.288 55.882 309.422 53.682 312.48 53.682C315.516 53.682 317.628 55.882 317.628 58.94C317.628 61.954 315.516 64.198 312.48 64.198ZM312.48 62.306C314.394 62.306 315.67 60.854 315.67 58.94C315.67 57.004 314.394 55.596 312.48 55.596C310.544 55.596 309.268 57.004 309.268 58.94C309.268 60.854 310.544 62.306 312.48 62.306ZM332.479 53.88H334.547L331.181 64H329.223L326.847 57.004L324.449 64H322.491L319.169 53.88H321.237L323.591 61.206L326.143 53.88H327.595L330.103 61.206L332.479 53.88Z" fill="#807D7E"/>
<path d="M636.368 65.1V63.56C634.234 63.23 632.54 62.13 631.99 60.524L634.366 59.028C634.674 59.798 636.236 61.008 637.82 61.008C639.14 61.008 639.844 60.634 639.844 59.754C639.844 58.632 638.15 58.346 637.138 58.016C636.082 57.686 632.716 56.872 632.716 54.012C632.716 51.878 634.3 50.646 636.368 50.294V48.776H639.03V50.294C640.988 50.646 642.66 51.724 643.232 52.934L640.988 54.386C640.592 53.66 639.118 52.714 637.732 52.714C636.522 52.714 635.972 53.176 635.972 53.836C635.972 54.958 637.6 55.288 638.656 55.64C639.712 55.992 643.078 56.828 643.078 59.622C643.078 61.91 641.494 63.274 639.03 63.604V65.1H636.368ZM645.786 64L645.764 61.668L648.25 59.512C650.142 57.862 652.848 55.596 652.848 53.968C652.848 52.934 652.166 52.208 650.736 52.208C649.394 52.208 648.448 53.11 648.206 53.946L645.654 52.758C646.05 51.438 647.744 49.48 650.736 49.48C653.86 49.48 655.796 51.196 655.796 53.792C655.796 56.476 653.046 58.852 651.616 60.128L650.164 61.404H655.796V64H645.786ZM660.14 64L662.692 59.952C659.854 59.82 657.808 57.598 657.808 54.738C657.808 51.834 659.986 49.524 662.956 49.524C665.926 49.524 668.126 51.834 668.126 54.738C668.126 55.992 667.642 57.07 667.048 57.994L663.198 64H660.14ZM662.956 57.312C663.792 57.312 664.496 56.96 664.936 56.366L664.958 56.322C665.266 55.904 665.442 55.354 665.442 54.738C665.442 53.264 664.408 52.208 662.956 52.208C661.526 52.208 660.492 53.264 660.492 54.738C660.492 56.234 661.526 57.312 662.956 57.312ZM671.684 64.132C670.826 64.132 670.21 63.516 670.21 62.658C670.21 61.822 670.826 61.228 671.684 61.228C672.52 61.228 673.136 61.822 673.136 62.658C673.136 63.516 672.52 64.132 671.684 64.132ZM680.981 64.176C677.285 64.176 674.887 61.096 674.887 56.85C674.887 52.604 677.285 49.524 680.981 49.524C684.699 49.524 687.163 52.604 687.163 56.85C687.163 61.096 684.699 64.176 680.981 64.176ZM680.981 61.404C682.763 61.404 684.237 59.82 684.237 56.85C684.237 53.858 682.763 52.362 680.981 52.362C679.221 52.362 677.725 53.858 677.725 56.85C677.725 59.82 679.221 61.404 680.981 61.404ZM695.451 64.176C691.755 64.176 689.357 61.096 689.357 56.85C689.357 52.604 691.755 49.524 695.451 49.524C699.169 49.524 701.633 52.604 701.633 56.85C701.633 61.096 699.169 64.176 695.451 64.176ZM695.451 61.404C697.233 61.404 698.707 59.82 698.707 56.85C698.707 53.858 697.233 52.362 695.451 52.362C693.691 52.362 692.195 53.858 692.195 56.85C692.195 59.82 693.691 61.404 695.451 61.404Z" fill="#807D7E"/>
<rect x="753" y="30" width="143" height="50" rx="8" fill="#8A33FD"/>
<path d="M790.848 62L789.822 59.426H784.602L783.576 62H781.776L786.564 50.3H787.86L792.648 62H790.848ZM785.232 57.878H789.192L787.212 52.91L785.232 57.878ZM800.33 50.3H801.95V62H800.33V60.722C799.718 61.604 798.764 62.144 797.486 62.144C795.146 62.144 793.472 60.326 793.472 57.86C793.472 55.358 795.146 53.594 797.486 53.594C798.764 53.594 799.718 54.134 800.33 54.998V50.3ZM797.702 60.614C799.286 60.614 800.33 59.444 800.33 57.86C800.33 56.258 799.286 55.124 797.702 55.124C796.1 55.124 795.056 56.258 795.056 57.86C795.056 59.444 796.1 60.614 797.702 60.614ZM810.701 50.3H812.321V62H810.701V60.722C810.089 61.604 809.135 62.144 807.857 62.144C805.517 62.144 803.843 60.326 803.843 57.86C803.843 55.358 805.517 53.594 807.857 53.594C809.135 53.594 810.089 54.134 810.701 54.998V50.3ZM808.073 60.614C809.657 60.614 810.701 59.444 810.701 57.86C810.701 56.258 809.657 55.124 808.073 55.124C806.471 55.124 805.427 56.258 805.427 57.86C805.427 59.444 806.471 60.614 808.073 60.614ZM822.228 54.962H820.302V59.642C820.302 60.542 820.878 60.704 821.454 60.704H822.138V62H820.824C819.438 62 818.682 61.226 818.682 59.876V54.962H817.548V53.72H818.682V51.182H820.302V53.72H822.228V54.962ZM827.567 62.162C825.065 62.162 823.319 60.326 823.319 57.86C823.319 55.358 825.065 53.558 827.567 53.558C830.051 53.558 831.779 55.358 831.779 57.86C831.779 60.326 830.051 62.162 827.567 62.162ZM827.567 60.614C829.133 60.614 830.177 59.426 830.177 57.86C830.177 56.276 829.133 55.124 827.567 55.124C825.983 55.124 824.939 56.276 824.939 57.86C824.939 59.426 825.983 60.614 827.567 60.614ZM843.403 56.15C843.007 55.592 842.305 55.124 841.243 55.124C839.659 55.124 838.579 56.258 838.579 57.86C838.579 59.444 839.659 60.614 841.243 60.614C842.305 60.614 842.989 60.164 843.403 59.606L844.573 60.47C843.853 61.514 842.665 62.162 841.207 62.162C838.723 62.162 836.995 60.344 836.995 57.86C836.995 55.358 838.723 53.576 841.207 53.576C842.665 53.576 843.853 54.224 844.573 55.25L843.403 56.15ZM852.695 53.72H854.315V62H852.695V60.722C852.083 61.604 851.129 62.144 849.851 62.144C847.511 62.144 845.837 60.326 845.837 57.86C845.837 55.358 847.511 53.594 849.851 53.594C851.129 53.594 852.083 54.134 852.695 54.998V53.72ZM850.067 60.614C851.651 60.614 852.695 59.444 852.695 57.86C852.695 56.258 851.651 55.124 850.067 55.124C848.465 55.124 847.421 56.258 847.421 57.86C847.421 59.444 848.465 60.614 850.067 60.614ZM858.098 55.25C858.746 54.116 859.862 53.612 861.014 53.594V55.124C859.898 55.142 858.098 55.628 858.098 57.752V62H856.478V53.72H858.098V55.25ZM866.77 54.962H864.844V59.642C864.844 60.542 865.42 60.704 865.996 60.704H866.68V62H865.366C863.98 62 863.224 61.226 863.224 59.876V54.962H862.09V53.72H863.224V51.182H864.844V53.72H866.77V54.962Z" fill="white"/>
</svg>
